<svg xmlns="http://www.w3.org/2000/svg" viewBox="0 0 167.99 150.17" width="167.99" height="150.17"><path d="M133 137.47c-36.61 0-49.64-32-50.71-48.81 23.33-5.4 54.77-13.82 85.69-29-3.52-14.63-11.4-40.92-47.73-40.92a61.31 61.31 0 00-52.37 29.71 34.25 34.25 0 00-7.21-4.51C32 30.62 32 24.81 32 19.83 32 9.44 41.77 9.25 42.59 9.25c13.72 0 19.54 17.29 20.16 23.29h10c0-9 0-18.1-2.08-26.82C65.23 3.22 56.52 0 42.39 0 14.33 0 .84 11.46.84 29.13c0 20.17 18.07 26.62 31.78 33.69 11.42 6 15.16 12.68 15.16 17 0 5.83-1.65 11.31-12.05 11.31-9.76 0-21.61-10.63-23.9-29.63H0a181.44 181.44 0 003.33 31.95c10.38 4.77 19.52 7.24 32 7.24 8.16 0 15.91-.92 22.55-3.18 3.88 33.28 30.08 53 61.59 52.65 27.13-.22 41.66-16.38 46-20.46l-4.26-5c-3.8 1.9-11.66 12.77-28.21 12.77zM112.41 28.18c20.6 0 27.38 16.3 31.18 33.1A484.8 484.8 0 0182.3 76.74c0-19.8 7.04-48.56 30.11-48.56z" fill="#fff"/></svg>