<svg width="45" height="45" fill="none" xmlns="http://www.w3.org/2000/svg"><circle opacity=".33" cx="22.5" cy="22.5" r="22.5" fill="#fff"/><path d="M34.83 15.37c-.91.4-1.9.67-2.93.8a5.051 5.051 0 002.24-2.79c-.98.58-2.07 1-3.23 1.23-.93-1-2.26-1.61-3.72-1.61-2.81 0-5.09 2.26-5.09 5.05 0 .4.04.78.13 1.15-4.24-.21-7.99-2.22-10.5-5.28a5.022 5.022 0 001.58 6.74c-.84-.02-1.63-.25-2.31-.63v.07c0 2.45 1.76 4.49 4.09 4.95-.43.12-.88.18-1.34.18-.33 0-.65-.03-.96-.09a5.093 5.093 0 004.76 3.51 10.342 10.342 0 01-6.33 2.16c-.41 0-.82-.02-1.22-.07 2.25 1.43 4.93 2.26 7.81 2.26 9.37 0 14.49-7.7 14.49-14.37 0-.22 0-.44-.01-.65.99-.71 1.85-1.6 2.54-2.61z" fill="#fff"/></svg>