<svg width="45" height="45" fill="none" xmlns="http://www.w3.org/2000/svg"><circle opacity=".33" cx="22.5" cy="22.5" r="22.5" fill="#fff"/><path d="M33.93 17.76c-.06-1.22-.25-2.06-.53-2.79-.29-.77-.74-1.46-1.33-2.04a5.55 5.55 0 00-2.04-1.33c-.73-.28-1.57-.48-2.79-.53-1.23-.06-1.62-.07-4.74-.07s-3.52.01-4.74.07c-1.23.06-2.06.25-2.79.53-.77.29-1.47.74-2.04 1.33a5.68 5.68 0 00-1.33 2.04c-.28.73-.47 1.56-.53 2.79-.06 1.22-.07 1.62-.07 4.74s.01 3.52.07 4.74c.06 1.22.25 2.06.53 2.79.29.77.74 1.46 1.33 2.04a5.68 5.68 0 002.04 1.33c.73.28 1.57.48 2.79.53 1.23.06 1.62.07 4.74.07s3.52-.01 4.74-.07c1.22-.06 2.06-.25 2.79-.53 1.54-.6 2.77-1.82 3.36-3.36.28-.73.48-1.57.53-2.79.07-1.24.08-1.63.08-4.75s-.01-3.52-.07-4.74zm-2.07 9.39c-.05 1.12-.24 1.73-.4 2.14-.39 1-1.18 1.8-2.18 2.18-.41.16-1.01.34-2.14.4-1.21.06-1.58.07-4.65.07-3.07 0-3.43-.01-4.65-.07-1.12-.05-1.73-.24-2.14-.4-.5-.18-.95-.48-1.32-.86-.38-.37-.68-.82-.86-1.32-.16-.41-.34-1.01-.4-2.14-.06-1.21-.07-1.58-.07-4.65 0-3.07.01-3.43.07-4.65.05-1.12.24-1.73.4-2.14.2-.49.49-.94.88-1.31.37-.38.82-.68 1.32-.86.41-.16 1.01-.34 2.14-.4 1.21-.06 1.58-.07 4.65-.07 3.07 0 3.43.01 4.65.07 1.12.05 1.73.24 2.14.4.5.18.95.48 1.32.86.38.37.68.82.86 1.32.16.41.34 1.01.4 2.14.06 1.21.07 1.58.07 4.65 0 3.07-.03 3.42-.09 4.64zM22.5 16.59c-3.26 0-5.91 2.64-5.91 5.91 0 3.26 2.64 5.91 5.91 5.91 3.26 0 5.91-2.64 5.91-5.91 0-3.26-2.65-5.91-5.91-5.91zm0 9.74a3.83 3.83 0 110-7.66 3.83 3.83 0 010 7.66zm6.14-11.35c-.76 0-1.38.62-1.38 1.38 0 .76.62 1.38 1.38 1.38.76 0 1.38-.62 1.38-1.38 0-.76-.62-1.38-1.38-1.38z" fill="#fff"/></svg>